<mxfile host="app.diagrams.net" modified="2023-03-23T00:15:49.529Z" agent="5.0 (Macintosh)" etag="vgW8S8QK4FOK9W_nwtxm" version="21.0.10" type="github" pages="3">
  <diagram name="blockchain" id="1jD1X2tEOLxtZrq0bHsX">
    <mxGraphModel dx="1034" dy="451" grid="1" gridSize="10" guides="1" tooltips="1" connect="1" arrows="1" fold="1" page="1" pageScale="1" pageWidth="850" pageHeight="1100" math="0" shadow="0">
      <root>
        <mxCell id="0" />
        <mxCell id="1" parent="0" />
        <mxCell id="3neWBAKd3yHCASCgwBc7-2" value="Create Blockchain" style="whiteSpace=wrap;strokeWidth=2;" vertex="1" parent="1">
          <mxGeometry x="70" y="80" width="147" height="35" as="geometry" />
        </mxCell>
        <mxCell id="3neWBAKd3yHCASCgwBc7-3" value="Add New Block to Blockchain" style="whiteSpace=wrap;strokeWidth=2;" vertex="1" parent="1">
          <mxGeometry x="267" y="80" width="224" height="35" as="geometry" />
        </mxCell>
        <mxCell id="3neWBAKd3yHCASCgwBc7-4" value="Verify Block" style="whiteSpace=wrap;strokeWidth=2;" vertex="1" parent="1">
          <mxGeometry x="541" y="80" width="102" height="35" as="geometry" />
        </mxCell>
        <mxCell id="3neWBAKd3yHCASCgwBc7-5" value="Add Block to Chain" style="whiteSpace=wrap;strokeWidth=2;" vertex="1" parent="1">
          <mxGeometry x="693" y="80" width="152" height="35" as="geometry" />
        </mxCell>
        <mxCell id="3neWBAKd3yHCASCgwBc7-6" value="Validate Block" style="whiteSpace=wrap;strokeWidth=2;" vertex="1" parent="1">
          <mxGeometry x="895" y="80" width="118" height="35" as="geometry" />
        </mxCell>
        <mxCell id="3neWBAKd3yHCASCgwBc7-7" value="Confirm Block Validation" style="whiteSpace=wrap;strokeWidth=2;" vertex="1" parent="1">
          <mxGeometry x="1063" y="80" width="193" height="35" as="geometry" />
        </mxCell>
        <mxCell id="3neWBAKd3yHCASCgwBc7-8" value="Add Next Block to Chain" style="whiteSpace=wrap;strokeWidth=2;" vertex="1" parent="1">
          <mxGeometry x="1306" y="80" width="190" height="35" as="geometry" />
        </mxCell>
        <mxCell id="3neWBAKd3yHCASCgwBc7-9" value="Update Blockchain" style="whiteSpace=wrap;strokeWidth=2;" vertex="1" parent="1">
          <mxGeometry x="1547" y="80" width="150" height="35" as="geometry" />
        </mxCell>
        <mxCell id="3neWBAKd3yHCASCgwBc7-10" value="" style="curved=1;startArrow=none;endArrow=block;exitX=0.996825445265997;exitY=0.5;entryX=-0.002083301544189453;entryY=0.5;rounded=0;" edge="1" parent="1" source="3neWBAKd3yHCASCgwBc7-2" target="3neWBAKd3yHCASCgwBc7-3">
          <mxGeometry relative="1" as="geometry">
            <Array as="points" />
          </mxGeometry>
        </mxCell>
        <mxCell id="3neWBAKd3yHCASCgwBc7-11" value="" style="curved=1;startArrow=none;endArrow=block;exitX=0.9995536123003278;exitY=0.5;entryX=-0.0009803023992800246;entryY=0.5;rounded=0;" edge="1" parent="1" source="3neWBAKd3yHCASCgwBc7-3" target="3neWBAKd3yHCASCgwBc7-4">
          <mxGeometry relative="1" as="geometry">
            <Array as="points" />
          </mxGeometry>
        </mxCell>
        <mxCell id="3neWBAKd3yHCASCgwBc7-12" value="" style="curved=1;startArrow=none;endArrow=block;exitX=0.9973857356052772;exitY=0.5;entryX=-0.001754309001721834;entryY=0.5;rounded=0;" edge="1" parent="1" source="3neWBAKd3yHCASCgwBc7-4" target="3neWBAKd3yHCASCgwBc7-5">
          <mxGeometry relative="1" as="geometry">
            <Array as="points" />
          </mxGeometry>
        </mxCell>
        <mxCell id="3neWBAKd3yHCASCgwBc7-13" value="" style="curved=1;startArrow=none;endArrow=block;exitX=0.9983553133512798;exitY=0.5;entryX=-0.0021185794119107522;entryY=0.5;rounded=0;" edge="1" parent="1" source="3neWBAKd3yHCASCgwBc7-5" target="3neWBAKd3yHCASCgwBc7-6">
          <mxGeometry relative="1" as="geometry">
            <Array as="points" />
          </mxGeometry>
        </mxCell>
        <mxCell id="3neWBAKd3yHCASCgwBc7-14" value="" style="curved=1;startArrow=none;endArrow=block;exitX=1.0011299909171412;exitY=0.5;entryX=0.0006908752757650583;entryY=0.5;rounded=0;" edge="1" parent="1" source="3neWBAKd3yHCASCgwBc7-6" target="3neWBAKd3yHCASCgwBc7-7">
          <mxGeometry relative="1" as="geometry">
            <Array as="points" />
          </mxGeometry>
        </mxCell>
        <mxCell id="3neWBAKd3yHCASCgwBc7-15" value="" style="curved=1;startArrow=none;endArrow=block;exitX=1.0019862120633298;exitY=0.5;entryX=0.002017573306435033;entryY=0.5;rounded=0;" edge="1" parent="1" source="3neWBAKd3yHCASCgwBc7-7" target="3neWBAKd3yHCASCgwBc7-8">
          <mxGeometry relative="1" as="geometry">
            <Array as="points" />
          </mxGeometry>
        </mxCell>
        <mxCell id="3neWBAKd3yHCASCgwBc7-16" value="" style="curved=1;startArrow=none;endArrow=block;exitX=1.002807014866879;exitY=0.5;entryX=-0.003111114501953125;entryY=0.5;rounded=0;" edge="1" parent="1" source="3neWBAKd3yHCASCgwBc7-8" target="3neWBAKd3yHCASCgwBc7-9">
          <mxGeometry relative="1" as="geometry">
            <Array as="points" />
          </mxGeometry>
        </mxCell>
      </root>
    </mxGraphModel>
  </diagram>
  <diagram id="pvkGWHrY-x_2UR9Z85T8" name="wallet">
    <mxGraphModel dx="1034" dy="451" grid="1" gridSize="10" guides="1" tooltips="1" connect="1" arrows="1" fold="1" page="1" pageScale="1" pageWidth="850" pageHeight="1100" math="0" shadow="0">
      <root>
        <mxCell id="0" />
        <mxCell id="1" parent="0" />
        <mxCell id="IxNaug_6mPB2wjnl-gCI-22" value="How to use Wallet?" style="whiteSpace=wrap;strokeWidth=2;" vertex="1" parent="1">
          <mxGeometry x="20" y="20" width="153" height="35" as="geometry" />
        </mxCell>
        <mxCell id="IxNaug_6mPB2wjnl-gCI-23" value="Install Wallet App" style="whiteSpace=wrap;strokeWidth=2;" vertex="1" parent="1">
          <mxGeometry x="223" y="20" width="143" height="35" as="geometry" />
        </mxCell>
        <mxCell id="IxNaug_6mPB2wjnl-gCI-24" value="Set a secure password" style="whiteSpace=wrap;strokeWidth=2;" vertex="1" parent="1">
          <mxGeometry x="416" y="20" width="175" height="35" as="geometry" />
        </mxCell>
        <mxCell id="IxNaug_6mPB2wjnl-gCI-25" value="Create or Import Wallet" style="whiteSpace=wrap;strokeWidth=2;" vertex="1" parent="1">
          <mxGeometry x="642" y="20" width="188" height="35" as="geometry" />
        </mxCell>
        <mxCell id="IxNaug_6mPB2wjnl-gCI-26" value="Back up your wallet" style="whiteSpace=wrap;strokeWidth=2;" vertex="1" parent="1">
          <mxGeometry x="879" y="20" width="159" height="35" as="geometry" />
        </mxCell>
        <mxCell id="IxNaug_6mPB2wjnl-gCI-27" value="Add funds to your wallet" style="whiteSpace=wrap;strokeWidth=2;" vertex="1" parent="1">
          <mxGeometry x="1088" y="20" width="194" height="35" as="geometry" />
        </mxCell>
        <mxCell id="IxNaug_6mPB2wjnl-gCI-28" value="Check Balance" style="whiteSpace=wrap;strokeWidth=2;" vertex="1" parent="1">
          <mxGeometry x="1332" y="20" width="121" height="35" as="geometry" />
        </mxCell>
        <mxCell id="IxNaug_6mPB2wjnl-gCI-29" value="Make transactions" style="whiteSpace=wrap;strokeWidth=2;" vertex="1" parent="1">
          <mxGeometry x="1503" y="20" width="146" height="35" as="geometry" />
        </mxCell>
        <mxCell id="IxNaug_6mPB2wjnl-gCI-30" value="Recipient&#39;s wallet address" style="whiteSpace=wrap;strokeWidth=2;" vertex="1" parent="1">
          <mxGeometry x="1698" y="20" width="202" height="35" as="geometry" />
        </mxCell>
        <mxCell id="IxNaug_6mPB2wjnl-gCI-31" value="Amount to send" style="whiteSpace=wrap;strokeWidth=2;" vertex="1" parent="1">
          <mxGeometry x="1950" y="20" width="130" height="35" as="geometry" />
        </mxCell>
        <mxCell id="IxNaug_6mPB2wjnl-gCI-32" value="Confirm transaction" style="whiteSpace=wrap;strokeWidth=2;" vertex="1" parent="1">
          <mxGeometry x="2130" y="20" width="159" height="35" as="geometry" />
        </mxCell>
        <mxCell id="IxNaug_6mPB2wjnl-gCI-33" value="" style="curved=1;startArrow=none;endArrow=block;exitX=0.9990196477353962;exitY=0.5;entryX=-0.0010489083670236015;entryY=0.5;rounded=0;" edge="1" parent="1" source="IxNaug_6mPB2wjnl-gCI-22" target="IxNaug_6mPB2wjnl-gCI-23">
          <mxGeometry relative="1" as="geometry">
            <Array as="points" />
          </mxGeometry>
        </mxCell>
        <mxCell id="IxNaug_6mPB2wjnl-gCI-34" value="" style="curved=1;startArrow=none;endArrow=block;exitX=1.001981401776934;exitY=0.5;entryX=0.0016190883091517856;entryY=0.5;rounded=0;" edge="1" parent="1" source="IxNaug_6mPB2wjnl-gCI-23" target="IxNaug_6mPB2wjnl-gCI-24">
          <mxGeometry relative="1" as="geometry">
            <Array as="points" />
          </mxGeometry>
        </mxCell>
        <mxCell id="IxNaug_6mPB2wjnl-gCI-35" value="" style="curved=1;startArrow=none;endArrow=block;exitX=1.0037143380301339;exitY=0.5;entryX=-0.001861653429396609;entryY=0.5;rounded=0;" edge="1" parent="1" source="IxNaug_6mPB2wjnl-gCI-24" target="IxNaug_6mPB2wjnl-gCI-25">
          <mxGeometry relative="1" as="geometry">
            <Array as="points" />
          </mxGeometry>
        </mxCell>
        <mxCell id="IxNaug_6mPB2wjnl-gCI-36" value="" style="curved=1;startArrow=none;endArrow=block;exitX=0.996631216495595;exitY=0.5;entryX=0.0023060924602004715;entryY=0.5;rounded=0;" edge="1" parent="1" source="IxNaug_6mPB2wjnl-gCI-25" target="IxNaug_6mPB2wjnl-gCI-26">
          <mxGeometry relative="1" as="geometry">
            <Array as="points" />
          </mxGeometry>
        </mxCell>
        <mxCell id="IxNaug_6mPB2wjnl-gCI-37" value="" style="curved=1;startArrow=none;endArrow=block;exitX=1.0010482500184257;exitY=0.5;entryX=0.0008591327470602448;entryY=0.5;rounded=0;" edge="1" parent="1" source="IxNaug_6mPB2wjnl-gCI-26" target="IxNaug_6mPB2wjnl-gCI-27">
          <mxGeometry relative="1" as="geometry">
            <Array as="points" />
          </mxGeometry>
        </mxCell>
        <mxCell id="IxNaug_6mPB2wjnl-gCI-38" value="" style="curved=1;startArrow=none;endArrow=block;exitX=0.9984536711702642;exitY=0.5;entryX=-0.0024792379584194215;entryY=0.5;rounded=0;" edge="1" parent="1" source="IxNaug_6mPB2wjnl-gCI-27" target="IxNaug_6mPB2wjnl-gCI-28">
          <mxGeometry relative="1" as="geometry">
            <Array as="points" />
          </mxGeometry>
        </mxCell>
        <mxCell id="IxNaug_6mPB2wjnl-gCI-39" value="" style="curved=1;startArrow=none;endArrow=block;exitX=0.9960056021193827;exitY=0.5;entryX=-0.0033104256407855306;entryY=0.5;rounded=0;" edge="1" parent="1" source="IxNaug_6mPB2wjnl-gCI-28" target="IxNaug_6mPB2wjnl-gCI-29">
          <mxGeometry relative="1" as="geometry">
            <Array as="points" />
          </mxGeometry>
        </mxCell>
        <mxCell id="IxNaug_6mPB2wjnl-gCI-40" value="" style="curved=1;startArrow=none;endArrow=block;exitX=0.994064017517926;exitY=0.5;entryX=0.0006601314733524134;entryY=0.5;rounded=0;" edge="1" parent="1" source="IxNaug_6mPB2wjnl-gCI-29" target="IxNaug_6mPB2wjnl-gCI-30">
          <mxGeometry relative="1" as="geometry">
            <Array as="points" />
          </mxGeometry>
        </mxCell>
        <mxCell id="IxNaug_6mPB2wjnl-gCI-41" value="" style="curved=1;startArrow=none;endArrow=block;exitX=0.9997525356783725;exitY=0.5;entryX=-0.000384521484375;entryY=0.5;rounded=0;" edge="1" parent="1" source="IxNaug_6mPB2wjnl-gCI-30" target="IxNaug_6mPB2wjnl-gCI-31">
          <mxGeometry relative="1" as="geometry">
            <Array as="points" />
          </mxGeometry>
        </mxCell>
        <mxCell id="IxNaug_6mPB2wjnl-gCI-42" value="" style="curved=1;startArrow=none;endArrow=block;exitX=0.9965386023888221;exitY=0.5;entryX=-0.002830073518573113;entryY=0.5;rounded=0;" edge="1" parent="1" source="IxNaug_6mPB2wjnl-gCI-31" target="IxNaug_6mPB2wjnl-gCI-32">
          <mxGeometry relative="1" as="geometry">
            <Array as="points" />
          </mxGeometry>
        </mxCell>
      </root>
    </mxGraphModel>
  </diagram>
  <diagram id="t-dp0-qmMj4Z-_58XEFH" name="typescript">
    <mxGraphModel dx="1034" dy="451" grid="1" gridSize="10" guides="1" tooltips="1" connect="1" arrows="1" fold="1" page="1" pageScale="1" pageWidth="850" pageHeight="1100" math="0" shadow="0">
      <root>
        <mxCell id="0" />
        <mxCell id="1" parent="0" />
        <mxCell id="xxnslk5ZxIBnlHOI3wHa-2" value="TypeScript Keywords" style="whiteSpace=wrap;strokeWidth=2;" vertex="1" parent="1">
          <mxGeometry x="848" y="20" width="164" height="35" as="geometry" />
        </mxCell>
        <mxCell id="xxnslk5ZxIBnlHOI3wHa-3" value="Data Types" style="whiteSpace=wrap;strokeWidth=2;" vertex="1" parent="1">
          <mxGeometry x="298" y="105" width="94" height="35" as="geometry" />
        </mxCell>
        <mxCell id="xxnslk5ZxIBnlHOI3wHa-4" value="Functions" style="whiteSpace=wrap;strokeWidth=2;" vertex="1" parent="1">
          <mxGeometry x="784" y="105" width="86" height="35" as="geometry" />
        </mxCell>
        <mxCell id="xxnslk5ZxIBnlHOI3wHa-5" value="Variables" style="whiteSpace=wrap;strokeWidth=2;" vertex="1" parent="1">
          <mxGeometry x="1062" y="105" width="82" height="35" as="geometry" />
        </mxCell>
        <mxCell id="xxnslk5ZxIBnlHOI3wHa-6" value="Modifiers" style="whiteSpace=wrap;strokeWidth=2;" vertex="1" parent="1">
          <mxGeometry x="1444" y="105" width="82" height="35" as="geometry" />
        </mxCell>
        <mxCell id="xxnslk5ZxIBnlHOI3wHa-7" value="string" style="whiteSpace=wrap;strokeWidth=2;" vertex="1" parent="1">
          <mxGeometry x="20" y="190" width="57" height="35" as="geometry" />
        </mxCell>
        <mxCell id="xxnslk5ZxIBnlHOI3wHa-8" value="number" style="whiteSpace=wrap;strokeWidth=2;" vertex="1" parent="1">
          <mxGeometry x="127" y="190" width="72" height="35" as="geometry" />
        </mxCell>
        <mxCell id="xxnslk5ZxIBnlHOI3wHa-9" value="boolean" style="whiteSpace=wrap;strokeWidth=2;" vertex="1" parent="1">
          <mxGeometry x="249" y="190" width="74" height="35" as="geometry" />
        </mxCell>
        <mxCell id="xxnslk5ZxIBnlHOI3wHa-10" value="object" style="whiteSpace=wrap;strokeWidth=2;" vertex="1" parent="1">
          <mxGeometry x="373" y="190" width="63" height="35" as="geometry" />
        </mxCell>
        <mxCell id="xxnslk5ZxIBnlHOI3wHa-11" value="null" style="whiteSpace=wrap;strokeWidth=2;" vertex="1" parent="1">
          <mxGeometry x="486" y="190" width="44" height="35" as="geometry" />
        </mxCell>
        <mxCell id="xxnslk5ZxIBnlHOI3wHa-12" value="undefined" style="whiteSpace=wrap;strokeWidth=2;" vertex="1" parent="1">
          <mxGeometry x="580" y="190" width="89" height="35" as="geometry" />
        </mxCell>
        <mxCell id="xxnslk5ZxIBnlHOI3wHa-13" value="function" style="whiteSpace=wrap;strokeWidth=2;" vertex="1" parent="1">
          <mxGeometry x="719" y="190" width="77" height="35" as="geometry" />
        </mxCell>
        <mxCell id="xxnslk5ZxIBnlHOI3wHa-14" value="constructor" style="whiteSpace=wrap;strokeWidth=2;" vertex="1" parent="1">
          <mxGeometry x="846" y="190" width="99" height="35" as="geometry" />
        </mxCell>
        <mxCell id="xxnslk5ZxIBnlHOI3wHa-15" value="var" style="whiteSpace=wrap;strokeWidth=2;" vertex="1" parent="1">
          <mxGeometry x="995" y="190" width="39" height="35" as="geometry" />
        </mxCell>
        <mxCell id="xxnslk5ZxIBnlHOI3wHa-16" value="let" style="whiteSpace=wrap;strokeWidth=2;" vertex="1" parent="1">
          <mxGeometry x="1084" y="190" width="37" height="35" as="geometry" />
        </mxCell>
        <mxCell id="xxnslk5ZxIBnlHOI3wHa-17" value="const" style="whiteSpace=wrap;strokeWidth=2;" vertex="1" parent="1">
          <mxGeometry x="1171" y="190" width="55" height="35" as="geometry" />
        </mxCell>
        <mxCell id="xxnslk5ZxIBnlHOI3wHa-18" value="public" style="whiteSpace=wrap;strokeWidth=2;" vertex="1" parent="1">
          <mxGeometry x="1276" y="190" width="61" height="35" as="geometry" />
        </mxCell>
        <mxCell id="xxnslk5ZxIBnlHOI3wHa-19" value="private" style="whiteSpace=wrap;strokeWidth=2;" vertex="1" parent="1">
          <mxGeometry x="1387" y="190" width="68" height="35" as="geometry" />
        </mxCell>
        <mxCell id="xxnslk5ZxIBnlHOI3wHa-20" value="protected" style="whiteSpace=wrap;strokeWidth=2;" vertex="1" parent="1">
          <mxGeometry x="1505" y="190" width="88" height="35" as="geometry" />
        </mxCell>
        <mxCell id="xxnslk5ZxIBnlHOI3wHa-21" value="readonly" style="whiteSpace=wrap;strokeWidth=2;" vertex="1" parent="1">
          <mxGeometry x="1643" y="190" width="79" height="35" as="geometry" />
        </mxCell>
        <mxCell id="xxnslk5ZxIBnlHOI3wHa-22" value="" style="curved=1;startArrow=none;endArrow=block;exitX=0.0002286783078821694;exitY=0.6701522561201045;entryX=0.5016401067693183;entryY=0;rounded=0;" edge="1" parent="1" source="xxnslk5ZxIBnlHOI3wHa-2" target="xxnslk5ZxIBnlHOI3wHa-3">
          <mxGeometry relative="1" as="geometry">
            <Array as="points">
              <mxPoint x="345" y="80" />
            </Array>
          </mxGeometry>
        </mxCell>
        <mxCell id="xxnslk5ZxIBnlHOI3wHa-23" value="" style="curved=1;startArrow=none;endArrow=block;exitX=0.23954746473468344;exitY=1;entryX=0.49166666075240734;entryY=0;rounded=0;" edge="1" parent="1" source="xxnslk5ZxIBnlHOI3wHa-2" target="xxnslk5ZxIBnlHOI3wHa-4">
          <mxGeometry relative="1" as="geometry">
            <Array as="points">
              <mxPoint x="826" y="80" />
            </Array>
          </mxGeometry>
        </mxCell>
        <mxCell id="xxnslk5ZxIBnlHOI3wHa-24" value="" style="curved=1;startArrow=none;endArrow=block;exitX=0.9333542573400688;exitY=1;entryX=0.49532520480272246;entryY=0;rounded=0;" edge="1" parent="1" source="xxnslk5ZxIBnlHOI3wHa-2" target="xxnslk5ZxIBnlHOI3wHa-5">
          <mxGeometry relative="1" as="geometry">
            <Array as="points">
              <mxPoint x="1103" y="80" />
            </Array>
          </mxGeometry>
        </mxCell>
        <mxCell id="xxnslk5ZxIBnlHOI3wHa-25" value="" style="curved=1;startArrow=none;endArrow=block;exitX=0.9996188849937625;exitY=0.6793510919929494;entryX=0.4978657931816287;entryY=0;rounded=0;" edge="1" parent="1" source="xxnslk5ZxIBnlHOI3wHa-2" target="xxnslk5ZxIBnlHOI3wHa-6">
          <mxGeometry relative="1" as="geometry">
            <Array as="points">
              <mxPoint x="1485" y="80" />
            </Array>
          </mxGeometry>
        </mxCell>
        <mxCell id="xxnslk5ZxIBnlHOI3wHa-26" value="" style="curved=1;startArrow=none;endArrow=block;exitX=0.0003103195352757231;exitY=0.6930255001168348;entryX=0.5035087853147272;entryY=0;rounded=0;" edge="1" parent="1" source="xxnslk5ZxIBnlHOI3wHa-3" target="xxnslk5ZxIBnlHOI3wHa-7">
          <mxGeometry relative="1" as="geometry">
            <Array as="points">
              <mxPoint x="49" y="165" />
            </Array>
          </mxGeometry>
        </mxCell>
        <mxCell id="xxnslk5ZxIBnlHOI3wHa-27" value="" style="curved=1;startArrow=none;endArrow=block;exitX=0.0003103195352757231;exitY=0.8145356788809989;entryX=0.5031250317891439;entryY=0;rounded=0;" edge="1" parent="1" source="xxnslk5ZxIBnlHOI3wHa-3" target="xxnslk5ZxIBnlHOI3wHa-8">
          <mxGeometry relative="1" as="geometry">
            <Array as="points">
              <mxPoint x="163" y="165" />
            </Array>
          </mxGeometry>
        </mxCell>
        <mxCell id="xxnslk5ZxIBnlHOI3wHa-28" value="" style="curved=1;startArrow=none;endArrow=block;exitX=0.24204217268617959;exitY=1;entryX=0.49853608414933487;entryY=0;rounded=0;" edge="1" parent="1" source="xxnslk5ZxIBnlHOI3wHa-3" target="xxnslk5ZxIBnlHOI3wHa-9">
          <mxGeometry relative="1" as="geometry">
            <Array as="points">
              <mxPoint x="286" y="165" />
            </Array>
          </mxGeometry>
        </mxCell>
        <mxCell id="xxnslk5ZxIBnlHOI3wHa-29" value="" style="curved=1;startArrow=none;endArrow=block;exitX=0.7612380408524569;exitY=1;entryX=0.49867729913620723;entryY=0;rounded=0;" edge="1" parent="1" source="xxnslk5ZxIBnlHOI3wHa-3" target="xxnslk5ZxIBnlHOI3wHa-10">
          <mxGeometry relative="1" as="geometry">
            <Array as="points">
              <mxPoint x="404" y="165" />
            </Array>
          </mxGeometry>
        </mxCell>
        <mxCell id="xxnslk5ZxIBnlHOI3wHa-30" value="" style="curved=1;startArrow=none;endArrow=block;exitX=1.002969894003361;exitY=0.8512512206657062;entryX=0.5015152150934393;entryY=0;rounded=0;" edge="1" parent="1" source="xxnslk5ZxIBnlHOI3wHa-3" target="xxnslk5ZxIBnlHOI3wHa-11">
          <mxGeometry relative="1" as="geometry">
            <Array as="points">
              <mxPoint x="508" y="165" />
            </Array>
          </mxGeometry>
        </mxCell>
        <mxCell id="xxnslk5ZxIBnlHOI3wHa-31" value="" style="curved=1;startArrow=none;endArrow=block;exitX=1.002969894003361;exitY=0.7048105502079969;entryX=0.5005618320422226;entryY=0;rounded=0;" edge="1" parent="1" source="xxnslk5ZxIBnlHOI3wHa-3" target="xxnslk5ZxIBnlHOI3wHa-12">
          <mxGeometry relative="1" as="geometry">
            <Array as="points">
              <mxPoint x="625" y="165" />
            </Array>
          </mxGeometry>
        </mxCell>
        <mxCell id="xxnslk5ZxIBnlHOI3wHa-32" value="" style="curved=1;startArrow=none;endArrow=block;exitX=0.1616564044874114;exitY=1;entryX=0.49816017646294136;entryY=0;rounded=0;" edge="1" parent="1" source="xxnslk5ZxIBnlHOI3wHa-4" target="xxnslk5ZxIBnlHOI3wHa-13">
          <mxGeometry relative="1" as="geometry">
            <Array as="points">
              <mxPoint x="757" y="165" />
            </Array>
          </mxGeometry>
        </mxCell>
        <mxCell id="xxnslk5ZxIBnlHOI3wHa-33" value="" style="curved=1;startArrow=none;endArrow=block;exitX=0.8216769170174033;exitY=1;entryX=0.4970538592097735;entryY=0;rounded=0;" edge="1" parent="1" source="xxnslk5ZxIBnlHOI3wHa-4" target="xxnslk5ZxIBnlHOI3wHa-14">
          <mxGeometry relative="1" as="geometry">
            <Array as="points">
              <mxPoint x="895" y="165" />
            </Array>
          </mxGeometry>
        </mxCell>
        <mxCell id="xxnslk5ZxIBnlHOI3wHa-34" value="" style="curved=1;startArrow=none;endArrow=block;exitX=0.05280368399927816;exitY=1;entryX=0.4997863280467498;entryY=0;rounded=0;" edge="1" parent="1" source="xxnslk5ZxIBnlHOI3wHa-5" target="xxnslk5ZxIBnlHOI3wHa-15">
          <mxGeometry relative="1" as="geometry">
            <Array as="points">
              <mxPoint x="1014" y="165" />
            </Array>
          </mxGeometry>
        </mxCell>
        <mxCell id="xxnslk5ZxIBnlHOI3wHa-35" value="" style="curved=1;startArrow=none;endArrow=block;exitX=0.49532520480272246;exitY=1;entryX=0.5031531565898174;entryY=0;rounded=0;" edge="1" parent="1" source="xxnslk5ZxIBnlHOI3wHa-5" target="xxnslk5ZxIBnlHOI3wHa-16">
          <mxGeometry relative="1" as="geometry">
            <Array as="points" />
          </mxGeometry>
        </mxCell>
        <mxCell id="xxnslk5ZxIBnlHOI3wHa-36" value="" style="curved=1;startArrow=none;endArrow=block;exitX=0.9770982747782582;exitY=1;entryX=0.5010605898770419;entryY=0;rounded=0;" edge="1" parent="1" source="xxnslk5ZxIBnlHOI3wHa-5" target="xxnslk5ZxIBnlHOI3wHa-17">
          <mxGeometry relative="1" as="geometry">
            <Array as="points">
              <mxPoint x="1199" y="165" />
            </Array>
          </mxGeometry>
        </mxCell>
        <mxCell id="xxnslk5ZxIBnlHOI3wHa-37" value="" style="curved=1;startArrow=none;endArrow=block;exitX=-0.00416674265047399;exitY=0.7803070897563268;entryX=0.4998633587946657;entryY=0;rounded=0;" edge="1" parent="1" source="xxnslk5ZxIBnlHOI3wHa-6" target="xxnslk5ZxIBnlHOI3wHa-18">
          <mxGeometry relative="1" as="geometry">
            <Array as="points">
              <mxPoint x="1306" y="165" />
            </Array>
          </mxGeometry>
        </mxCell>
        <mxCell id="xxnslk5ZxIBnlHOI3wHa-38" value="" style="curved=1;startArrow=none;endArrow=block;exitX=0.17682323428445348;exitY=1;entryX=0.4984068029067096;entryY=0;rounded=0;" edge="1" parent="1" source="xxnslk5ZxIBnlHOI3wHa-6" target="xxnslk5ZxIBnlHOI3wHa-19">
          <mxGeometry relative="1" as="geometry">
            <Array as="points">
              <mxPoint x="1421" y="165" />
            </Array>
          </mxGeometry>
        </mxCell>
        <mxCell id="xxnslk5ZxIBnlHOI3wHa-39" value="" style="curved=1;startArrow=none;endArrow=block;exitX=0.818908352078804;exitY=1;entryX=0.49725372141057794;entryY=0;rounded=0;" edge="1" parent="1" source="xxnslk5ZxIBnlHOI3wHa-6" target="xxnslk5ZxIBnlHOI3wHa-20">
          <mxGeometry relative="1" as="geometry">
            <Array as="points">
              <mxPoint x="1549" y="165" />
            </Array>
          </mxGeometry>
        </mxCell>
        <mxCell id="xxnslk5ZxIBnlHOI3wHa-40" value="" style="curved=1;startArrow=none;endArrow=block;exitX=0.9998983290137314;exitY=0.7532432000484595;entryX=0.49641341197339794;entryY=0;rounded=0;" edge="1" parent="1" source="xxnslk5ZxIBnlHOI3wHa-6" target="xxnslk5ZxIBnlHOI3wHa-21">
          <mxGeometry relative="1" as="geometry">
            <Array as="points">
              <mxPoint x="1682" y="165" />
            </Array>
          </mxGeometry>
        </mxCell>
      </root>
    </mxGraphModel>
  </diagram>
</mxfile>
